# xmcd
#
# Track frame offsets: 
#        150
#        18484
#        35565
#        51203
#        64521
#        77747
#        91214
#        103588
#        121938
#        139347
#        154072
#        170139
#
# Disc length: 2484 seconds
#
# Revision: 0
# Processed by: cddbd v1.5.2PL0 Copyright (c) Steve Scherf et al.
# Submitted via: ExactAudioCopyFreeDBPlugin 1.0
#
DISCID=9c09b20c
DTITLE=Kiimberley Gold - Nature's Beauty
DYEAR=2016
DGENRE=Tribal
TTITLE0=Nature's Beauty
TTITLE1=On the Shores of Yanderlin
TTITLE2=Johnston Melody
TTITLE3=I Heard You Calling My Name
TTITLE4=A Town Called Borroloola
TTITLE5=Calwyn's Theme
TTITLE6=Half a Heart
TTITLE7=Old Man's Dream
TTITLE8=Snowbird
TTITLE9=Sing Me Back Home
TTITLE10=All You Ever Do Is Bring Me Down
TTITLE11=Hor Rod Lincoln
EXTD=
EXTT0=
EXTT1=
EXTT2=
EXTT3=
EXTT4=
EXTT5=
EXTT6=
EXTT7=
EXTT8=
EXTT9=
EXTT10=
EXTT11=
PLAYORDER=
